<?xml version="1.0" standalone="no"?>
<!DOCTYPE svg PUBLIC "-//W3C//DTD SVG 20010904//EN"
 "http://www.w3.org/TR/2001/REC-SVG-20010904/DTD/svg10.dtd">
<svg version="1.0" xmlns="http://www.w3.org/2000/svg"
 width="512.000000pt" height="512.000000pt" viewBox="0 0 512.000000 512.000000"
 preserveAspectRatio="xMidYMid meet">
<metadata>
Created by potrace 1.16, written by Peter Selinger 2001-2019
</metadata>
<g transform="translate(0.000000,512.000000) scale(0.100000,-0.100000)"
fill="#000000" stroke="none">
<path d="M1681 4673 c-14 -11 -26 -36 -32 -63 -14 -76 -10 -415 7 -550 12
-102 13 -140 4 -204 -6 -44 -13 -125 -15 -180 -1 -56 -10 -135 -19 -176 -39
-172 -29 -313 29 -438 14 -30 25 -55 25 -57 0 -1 -21 -6 -47 -10 -48 -7 -157
-44 -151 -51 2 -2 25 3 51 11 26 8 73 17 104 20 l58 7 37 -53 c21 -30 34 -57
30 -60 -4 -3 -29 -12 -56 -18 -121 -29 -226 -106 -280 -204 -59 -107 -79 -186
-79 -320 l0 -119 -72 -142 c-97 -190 -119 -279 -118 -471 0 -111 5 -157 22
-220 40 -149 170 -384 272 -490 23 -25 29 -40 29 -75 1 -64 38 -122 100 -156
30 -16 57 -19 191 -19 153 0 156 0 195 -27 54 -38 116 -58 199 -65 168 -14
284 53 304 177 l6 35 58 0 58 0 18 -53 c11 -32 34 -70 57 -93 55 -56 114 -74
249 -73 123 0 183 19 241 75 29 28 36 30 157 38 78 6 138 16 160 26 40 19 67
69 67 126 0 58 -62 123 -138 145 -68 20 -165 14 -239 -14 -29 -11 -54 -17 -57
-14 -13 12 -4 59 34 175 45 138 49 144 189 243 81 57 170 144 193 188 6 11
-20 -9 -58 -45 -77 -73 -133 -113 -213 -153 l-54 -28 7 28 c4 15 15 39 25 53
25 36 63 112 58 117 -2 2 -16 -19 -31 -47 -16 -28 -30 -49 -32 -47 -2 2 10 53
26 114 17 60 30 119 30 132 0 12 24 62 53 111 30 49 67 128 82 176 l29 87 18
-24 c82 -103 131 -201 154 -309 21 -98 14 -283 -15 -394 -24 -94 -84 -220
-136 -288 -20 -27 -35 -50 -33 -51 1 -2 18 -11 35 -20 18 -9 43 -30 55 -46 14
-19 31 -30 46 -30 32 0 132 54 179 97 44 40 40 39 -45 -5 -35 -18 -83 -37
-108 -41 -39 -7 -46 -6 -58 11 -13 18 -10 29 25 101 21 45 47 119 56 165 l18
83 66 22 c128 43 262 145 308 235 24 47 51 164 51 220 0 21 8 49 17 62 14 21
15 23 1 12 -22 -18 -34 -54 -47 -142 -16 -104 -50 -168 -124 -235 -63 -57
-174 -118 -236 -131 -32 -6 -34 -5 -27 17 14 50 18 255 7 327 -20 129 -74 245
-162 351 l-31 37 -2 159 c-2 147 -4 167 -30 240 -33 96 -61 146 -125 223 l-48
58 52 30 52 31 59 -44 c32 -24 81 -65 108 -91 l49 -47 -31 41 c-33 43 -86 94
-135 129 l-28 21 49 41 48 41 94 -19 c51 -11 95 -18 97 -16 3 4 -81 29 -144
44 l-32 8 27 42 c31 48 49 52 125 29 26 -8 44 -10 41 -5 -3 5 -31 16 -62 25
-31 9 -58 17 -59 18 -1 1 10 33 24 71 20 54 27 95 31 178 6 144 -20 269 -83
397 -22 44 -45 182 -45 268 0 22 25 164 55 314 79 388 77 448 -15 448 -49 0
-112 -34 -265 -143 -185 -132 -311 -211 -412 -260 l-88 -42 -215 0 c-243 0
-248 1 -315 77 -85 97 -214 223 -274 269 -124 95 -232 130 -280 92z m1884 -27
c26 -19 18 -97 -44 -408 -28 -139 -53 -271 -56 -293 -7 -39 -7 -39 -20 -16 -9
17 -10 34 -4 55 5 17 9 43 9 58 0 15 13 76 30 134 33 119 85 416 76 439 -17
45 -124 -17 -268 -153 -138 -132 -240 -277 -264 -377 -7 -27 -6 -29 9 -16 14
11 23 9 61 -13 25 -14 48 -31 51 -37 4 -5 -5 -25 -20 -44 -14 -19 -24 -35 -22
-35 3 0 24 9 48 20 128 58 279 -23 279 -150 0 -16 5 -32 10 -35 6 -4 10 6 10
21 0 45 19 14 26 -41 3 -28 21 -86 40 -130 41 -99 61 -186 68 -290 3 -45 2
-65 -2 -45 l-8 35 -7 -41 c-4 -22 -20 -66 -35 -97 -16 -31 -26 -57 -22 -57 4
0 24 18 44 40 35 39 36 40 30 13 -17 -77 -28 -111 -45 -145 -16 -32 -23 -37
-47 -33 -112 17 -404 8 -492 -15 -23 -6 0 -7 70 -2 136 9 426 9 436 0 4 -4 -6
-24 -21 -45 -16 -21 -29 -39 -30 -41 -1 -1 -55 7 -121 18 -131 23 -342 37
-309 21 11 -5 83 -17 160 -26 77 -9 162 -21 190 -27 l49 -11 -34 -28 c-19 -16
-41 -29 -50 -29 -8 0 -47 13 -86 29 -76 32 -251 81 -291 81 -41 0 -16 -17 36
-24 56 -7 192 -46 269 -77 l53 -22 -47 -27 -47 -28 -62 43 c-58 40 -144 74
-222 90 -62 12 -33 -13 40 -35 79 -24 177 -72 201 -99 15 -16 14 -19 -8 -31
-23 -12 -29 -9 -78 34 -52 46 -146 90 -177 83 -9 -2 18 -19 59 -39 41 -19 90
-51 109 -71 l33 -35 -28 -15 c-28 -14 -29 -14 -72 35 -49 54 -111 91 -145 86
-17 -2 -9 -9 35 -31 68 -34 137 -106 113 -119 -47 -27 -207 -52 -345 -54 -80
-1 -175 -5 -211 -9 -71 -8 -220 11 -317 40 -43 13 -51 19 -42 30 14 17 130 85
188 110 42 18 55 35 26 35 -8 0 -55 -21 -104 -46 -85 -43 -119 -51 -123 -29
-2 10 116 74 163 89 21 7 22 9 7 13 -27 7 -112 -25 -167 -63 -27 -19 -54 -34
-59 -34 -16 0 -81 33 -81 41 0 10 155 65 238 85 77 19 101 34 55 34 -39 0
-184 -42 -258 -75 -32 -14 -65 -25 -75 -25 -9 0 -34 15 -55 33 l-39 33 102 22
c56 12 156 29 222 39 81 11 117 20 110 27 -16 16 -256 -17 -421 -59 -23 -6
-31 0 -62 42 l-36 48 57 6 c31 4 158 8 282 9 156 2 207 5 165 10 -33 4 -164 5
-292 2 l-231 -5 -25 49 c-31 61 -57 148 -57 189 0 18 9 44 20 58 22 27 27 48
8 29 -21 -21 -28 -13 -28 32 0 79 30 220 65 299 18 43 27 73 20 67 -7 -6 -19
-25 -26 -42 l-13 -32 -8 29 c-4 16 -1 86 6 155 7 69 12 148 10 175 l-3 50 11
-45 c7 -25 11 -80 9 -122 -2 -72 0 -80 24 -104 l27 -27 23 29 c52 63 52 68 12
144 l-36 69 27 -5 c20 -4 33 0 47 16 13 15 15 19 4 15 -19 -7 -32 19 -60 128
-31 118 -31 246 0 310 44 91 123 72 231 -59 45 -55 98 -150 88 -159 -3 -4 -20
1 -37 9 -38 20 -81 37 -81 32 0 -2 22 -21 50 -42 27 -21 48 -39 46 -42 -2 -2
-34 6 -71 17 -89 28 -100 26 -39 -4 70 -35 106 -67 95 -84 -7 -11 -18 -10 -65
8 -73 27 -92 26 -41 -1 29 -16 35 -23 23 -26 -28 -6 -21 -21 12 -29 52 -14 33
-28 -44 -33 -81 -5 -115 -20 -48 -20 51 0 54 -14 7 -30 -44 -14 -52 -28 -29
-45 16 -11 16 -15 5 -29 -27 -32 0 -28 54 8 56 37 143 76 170 76 8 0 32 18 52
41 20 22 49 47 65 55 15 8 28 23 28 33 0 34 -71 161 -122 216 -115 126 -281
235 -359 235 -49 0 -61 -28 -67 -160 -5 -116 15 -253 49 -329 24 -54 24 -58 0
-37 -47 42 -78 236 -66 409 9 143 21 167 83 167 72 0 199 -94 392 -290 l145
-148 180 -1 c243 -2 308 8 414 65 110 60 282 170 401 258 177 130 224 152 265
122z m-26 -70 c10 -12 9 -14 -6 -10 -10 3 -27 -2 -38 -10 -19 -15 -19 -15 -1
-16 17 0 18 -6 12 -82 -9 -103 -41 -273 -63 -330 -9 -24 -17 -69 -18 -101 -1
-31 -5 -60 -8 -63 -3 -4 -23 7 -44 23 -21 17 -51 35 -68 40 l-30 10 30 16 30
16 -35 1 c-34 0 -34 0 -12 16 28 19 30 39 3 24 -25 -13 -68 -13 -76 -1 -3 6
21 28 54 50 89 61 97 79 15 34 l-49 -27 45 43 45 42 -65 -31 -65 -30 49 42
c28 24 66 58 85 77 l36 33 -35 -20 c-19 -11 -57 -32 -85 -47 l-50 -27 35 28
c64 53 111 97 106 101 -2 2 -34 -17 -72 -44 l-67 -47 19 33 c30 52 153 181
218 228 61 45 86 52 105 29z m-1709 -1763 c27 -21 49 -40 49 -43 0 -3 -32 -27
-70 -53 l-71 -49 -32 29 -31 28 28 -31 c17 -19 24 -34 19 -38 -6 -3 -25 -25
-43 -49 l-33 -42 40 38 c22 20 42 37 46 37 4 0 135 -85 146 -95 1 -1 -9 -26
-23 -56 -36 -78 -30 -96 7 -21 17 34 34 62 39 62 4 0 43 -17 86 -39 43 -21
130 -58 193 -81 63 -24 133 -54 155 -68 l40 -25 -23 25 c-31 34 -93 66 -239
123 l-122 48 17 29 c9 16 26 38 38 49 21 20 21 20 109 -6 95 -27 191 -40 386
-50 113 -6 140 -4 258 20 73 14 157 35 188 46 61 21 71 18 75 -21 3 -23 -6
-28 -127 -74 -71 -27 -168 -57 -215 -67 l-85 -19 68 5 c45 3 118 21 215 54 84
28 151 46 156 41 5 -5 11 -66 14 -136 5 -142 19 -148 28 -12 5 76 -5 153 -31
244 -5 17 -1 24 25 32 29 11 32 9 51 -21 56 -92 76 -274 44 -402 -22 -86 -93
-227 -165 -328 -35 -48 -64 -86 -66 -84 -2 2 1 19 6 38 17 59 10 66 -16 14
-30 -58 -69 -108 -177 -224 -93 -100 -129 -172 -164 -319 -13 -59 -35 -142
-48 -184 -12 -43 -19 -78 -15 -78 18 0 43 59 76 182 19 73 47 159 62 192 24
54 27 57 33 35 4 -13 7 -40 8 -60 1 -38 -56 -287 -111 -487 l-31 -112 -51 0
c-28 0 -56 4 -63 8 -12 8 -114 350 -138 462 -8 36 -19 79 -25 95 -6 16 -20 90
-31 165 -20 140 -48 247 -75 290 -11 18 -13 19 -9 5 21 -66 37 -145 50 -260
18 -152 27 -258 19 -230 -35 127 -118 320 -159 370 -9 11 -4 -3 9 -32 70 -143
144 -378 176 -557 29 -165 40 -198 77 -237 63 -67 77 -173 30 -233 l-22 -27 3
49 c3 36 -2 61 -18 92 -24 48 -38 47 -21 -1 26 -74 6 -154 -44 -177 -14 -7
-64 -12 -110 -12 -75 0 -87 3 -114 25 -36 31 -54 82 -49 136 5 50 -8 51 -21 1
-11 -38 -5 -78 18 -121 15 -27 1 -27 -33 0 -41 33 -49 56 -57 184 -8 134 -39
248 -130 486 -88 231 -101 283 -119 502 -5 70 -11 133 -12 140 -1 7 -4 -32 -7
-87 l-6 -99 -45 78 c-24 43 -52 101 -61 129 -29 83 -42 220 -36 356 4 91 3
117 -5 95 -14 -43 -15 -341 -1 -390 12 -39 11 -39 -5 -16 -78 113 -16 -24 91
-201 57 -96 66 -118 81 -201 10 -52 35 -143 56 -203 88 -251 129 -371 135
-401 l7 -33 -44 17 c-26 10 -74 16 -123 17 -93 0 -144 -21 -192 -78 l-29 -35
-46 57 c-109 134 -191 285 -234 429 -23 77 -27 107 -28 233 -1 129 2 156 27
245 35 125 146 360 156 331 4 -11 6 30 3 91 -9 221 69 412 208 508 39 27 158
74 188 75 7 0 35 -17 62 -37z m150 -78 c50 -25 50 -25 30 -45 -20 -20 -20 -20
-75 7 -30 15 -55 30 -55 34 0 5 34 25 48 28 1 1 25 -10 52 -24z m-53 -54 l42
-24 -37 -46 c-20 -25 -37 -48 -39 -50 -3 -5 -143 82 -143 89 0 3 23 20 51 37
55 34 57 33 126 -6z m192 13 c2 -2 -7 -13 -20 -24 -16 -13 -32 -18 -49 -14
-34 8 -36 11 -15 33 13 15 25 19 49 14 17 -3 33 -7 35 -9z m1236 -156 c52 -99
75 -199 75 -332 0 -210 -57 -365 -199 -540 -60 -75 -61 -78 -22 -47 35 28 41
30 41 14 0 -31 -38 -167 -95 -343 -69 -213 -92 -294 -100 -352 l-7 -48 -49 0
c-26 0 -51 -5 -54 -10 -4 -6 7 -10 27 -10 52 -1 114 -34 134 -72 38 -72 18
-155 -46 -197 -23 -14 -24 -14 -13 0 23 29 25 100 5 144 l-19 40 4 -65 c5 -80
-18 -131 -63 -141 -47 -11 -116 -10 -157 2 -31 8 -42 18 -54 47 -15 36 -14
102 2 147 6 18 4 17 -14 -3 -30 -34 -37 -88 -19 -139 9 -24 12 -43 7 -43 -21
0 -89 82 -99 120 -13 49 -12 55 70 405 57 240 61 266 56 341 l-6 81 106 114
c273 293 384 503 384 724 0 101 -17 175 -55 249 -15 28 -22 52 -17 54 5 1 18
9 28 17 17 13 23 10 66 -38 26 -28 63 -82 83 -119z m-1331 89 c18 -13 17 -16
-10 -58 -15 -24 -30 -46 -31 -48 -2 -3 -19 3 -39 13 -39 18 -39 19 15 79 28
30 39 33 65 14z m346 -1581 c21 -104 21 -147 1 -93 -12 31 -41 193 -40 222 0
20 0 19 9 -1 4 -11 18 -69 30 -128z m-537 -114 c57 -25 67 -47 67 -146 0 -77
-9 -96 -46 -96 -27 0 -33 14 -48 115 l-12 80 -13 -41 c-11 -34 -11 -50 2 -100
11 -44 12 -61 4 -67 -20 -13 -170 -1 -205 17 -76 39 -83 156 -14 219 55 50
175 59 265 19z m1602 -31 c46 -27 78 -79 71 -120 -5 -30 -34 -76 -43 -68 -2 2
2 17 7 34 7 19 7 38 1 54 -9 22 -10 21 -10 -13 -1 -53 -36 -90 -87 -92 l-39
-1 -5 60 c-3 38 -13 73 -28 98 -13 20 -25 37 -28 37 -2 0 5 -23 16 -50 24 -61
25 -98 4 -128 -15 -22 -49 -29 -70 -14 -6 4 -16 30 -24 57 -7 28 -20 63 -27
79 -12 24 -13 30 -1 38 86 58 193 70 263 29z"/>
<path d="M3020 4184 c-82 -94 -89 -104 -66 -104 8 0 41 37 74 83 97 136 96
139 -8 21z"/>
<path d="M2725 4038 c-3 -46 -2 -96 4 -113 7 -23 9 -4 10 83 1 61 -1 112 -3
112 -2 0 -7 -37 -11 -82z"/>
<path d="M2443 4095 c18 -69 15 -181 -8 -280 -3 -11 2 -6 10 11 35 77 37 246
3 279 -7 7 -9 4 -5 -10z"/>
<path d="M2781 3753 c-23 -27 -50 -72 -61 -102 -20 -52 -39 -171 -27 -171 3 0
11 26 17 58 18 83 47 155 86 212 19 27 32 50 30 50 -2 0 -23 -21 -45 -47z"/>
<path d="M2840 3729 c-6 -11 -10 -25 -8 -30 2 -5 8 4 15 21 13 34 9 40 -7 9z"/>
<path d="M2311 3725 c9 -11 28 -42 42 -70 15 -27 26 -46 27 -42 0 16 -49 104
-67 117 -17 14 -17 14 -2 -5z"/>
<path d="M2953 3491 c-93 -45 -152 -137 -170 -270 -5 -33 -3 -42 6 -37 7 5 20
1 31 -9 17 -16 19 -15 30 4 10 20 18 21 103 19 78 -2 98 1 134 20 67 35 113
112 113 187 0 28 4 33 38 43 21 7 47 21 58 33 l19 21 -35 -7 c-20 -3 -63 0
-100 9 -100 24 -155 21 -227 -13z m174 -53 c49 -46 19 -148 -56 -192 -59 -34
-167 -17 -185 31 -6 14 -2 13 17 -5 38 -36 84 -45 126 -24 68 33 99 114 71
186 -12 32 -4 33 27 4z m-69 0 c15 -15 16 -54 2 -63 -10 -6 -14 1 -24 48 -7
29 2 35 22 15z m-114 -14 c9 -24 7 -54 -4 -54 -14 0 -31 37 -24 54 8 20 20 20
28 0z"/>
<path d="M2075 3490 c-41 -14 -77 -20 -114 -17 l-54 4 40 -36 c29 -27 44 -51
57 -95 21 -69 82 -136 141 -156 35 -12 56 -11 206 6 39 5 50 2 79 -22 l33 -29
-6 58 c-28 231 -189 352 -382 287z m59 -95 c-18 -61 -13 -84 27 -130 52 -58
110 -42 145 41 8 18 14 48 14 66 1 32 1 32 16 13 19 -24 13 -93 -11 -129 -42
-64 -187 -57 -247 10 -25 28 -48 89 -47 121 1 21 3 17 10 -15 9 -47 40 -96 71
-113 11 -6 18 -7 16 -2 -43 87 -49 108 -44 138 5 25 14 36 34 43 15 5 28 9 29
8 1 -1 -4 -24 -13 -51z m144 19 c2 -11 -6 -28 -17 -38 -19 -17 -21 -17 -27 -2
-3 9 -3 28 0 42 8 30 39 29 44 -2z"/>
<path d="M3234 3289 c-17 -18 -22 -28 -12 -24 14 6 55 55 45 55 -2 0 -16 -14
-33 -31z"/>
<path d="M2573 3051 c-40 -3 -77 -11 -84 -17 -18 -19 0 -55 37 -70 19 -8 34
-18 34 -23 0 -5 11 -23 25 -40 30 -35 26 -71 -11 -100 -28 -22 -150 -67 -207
-76 -21 -3 -35 -10 -32 -16 12 -19 97 -9 172 21 87 35 124 37 199 11 73 -26
138 -35 160 -23 15 9 11 12 -26 22 -212 54 -243 91 -152 183 26 26 57 57 70
69 30 29 28 37 -13 54 -35 14 -50 15 -172 5z m162 -30 c3 -5 -9 -11 -26 -13
-34 -3 -43 -14 -55 -63 -8 -29 -8 -29 -13 14 -8 63 -31 66 -31 4 0 -35 -3 -44
-10 -33 -5 8 -10 30 -10 49 0 32 -1 33 -35 29 -34 -4 -48 5 -22 15 22 10 196
7 202 -2z"/>
<path d="M2840 2860 c0 -5 5 -10 11 -10 5 0 7 5 4 10 -3 6 -8 10 -11 10 -2 0
-4 -4 -4 -10z"/>
<path d="M1531 2454 c0 -11 3 -14 6 -6 3 7 2 16 -1 19 -3 4 -6 -2 -5 -13z"/>
<path d="M2595 1870 c4 -14 14 -37 21 -52 19 -36 18 -57 -3 -81 -17 -19 -17
-20 4 -8 41 21 39 59 -7 132 -17 27 -20 29 -15 9z"/>
<path d="M2390 1857 c0 -26 27 -93 35 -85 2 2 -5 28 -15 58 -15 42 -19 49 -20
27z"/>
<path d="M1379 1833 c11 -23 45 -68 75 -100 52 -57 166 -133 196 -133 8 1 2 8
-15 17 -75 40 -188 142 -253 228 l-23 30 20 -42z"/>
<path d="M2395 1605 c34 -151 42 -260 25 -345 -10 -56 -6 -61 15 -19 10 18 19
66 22 108 4 62 0 92 -22 165 -26 90 -53 151 -40 91z"/>
<path d="M1335 1545 c33 -32 89 -77 125 -100 98 -63 300 -162 300 -147 0 18
-59 60 -115 82 -133 52 -242 114 -330 188 -22 19 -13 8 20 -23z"/>
<path d="M4172 1776 c0 -64 -24 -99 -63 -94 -23 4 -26 2 -18 -9 17 -19 56 -16
79 7 21 21 28 102 11 129 -6 10 -9 -1 -9 -33z"/>
<path d="M4085 1513 c-26 -131 -87 -240 -174 -311 -53 -43 -45 -49 20 -16 75
38 147 173 163 307 6 51 0 65 -9 20z"/>
</g>
</svg>